<mxfile host="app.diagrams.net" modified="2024-03-24T23:12:29.813Z" agent="Mozilla/5.0 (Macintosh; Intel Mac OS X 10_15_7) AppleWebKit/537.36 (KHTML, like Gecko) Chrome/119.0.0.0 Safari/537.36" version="24.0.8" etag="4SfQQQCqg25l63cWMBu-" type="github">
  <diagram name="ページ1" id="sJdgqnWTwmwJeYScPq3U">
    <mxGraphModel>
      <root>
        <mxCell id="0" />
        <mxCell id="1" parent="0" />
      </root>
    </mxGraphModel>
  </diagram>
</mxfile>
